<svg xmlns="http://www.w3.org/2000/svg" viewBox="0 0 512 512" role="img" aria-label="Inventario Hazmat">
  <defs>
    <linearGradient id="bg" x1="0" y1="0" x2="0" y2="1">
      <stop offset="0" stop-color="#d32f2f"/>
      <stop offset="1" stop-color="#991b1b"/>
    </linearGradient>
  </defs>
  <rect x="0" y="0" width="512" height="512" rx="112" fill="url(#bg)"/>
  <polygon points="256,102 410,256 256,410 102,256" fill="#171717"/>
  <polygon points="256,118 394,256 256,394 118,256" fill="#facc15"/>
  <path d="M256 154
           C 282 210, 300 232, 305 268
           C 309 300, 292 330, 256 344
           C 220 330, 203 300, 207 268
           C 212 232, 230 210, 256 154 Z"
        fill="#171717"/>
  <path d="M256 214
           C 270 250, 278 262, 280 284
           C 281 300, 272 316, 256 322
           C 240 316, 231 300, 232 284
           C 234 262, 242 250, 256 214 Z"
        fill="#d32f2f"/>
</svg>
